#!OML:ASF E:\Style6\Style6.ASF
:FULLY-SPECIFIED
:DEGREES
3354
root 0.652924 16.537 -0.528432 -12.8634 -6.18381 -2.27005
lowerback 16.5061 0.245035 3.35857
upperback 16.337 0.511344 1.22914
thorax 8.57376 0.484115 -0.595273
lowerneck 15.6996 0.966674 3.99827
upperneck -14.9169 0.919943 -7.48297
head -7.09172 0.909014 -3.2023
rclavicle 2.98177e-015 1.15295e-014
rhumerus -15.4216 24.3473 -60.1958
rradius 46.4385
rwrist -28.8204
rhand 15.7002 6.64684
rfingers 7.12502
rthumb 40.5103 -18.4232
lclavicle 2.98177e-015 1.15295e-014
lhumerus -11.3607 -40.7794 54.9594
lradius 46.0666
lwrist 38.456
lhand 15.0524 22.9329
lfingers 7.12502
lthumb 39.901 48.1888
rfemur -13.474 -11.1967 17.0564
rtibia 53.3348
rfoot -19.1611 2.85529
rtoes -16.3029
lfemur -12.9314 12.3795 -14.1271
ltibia 56.1409
lfoot -22.3229 4.69196
ltoes -24.6357
3355
root 0.644599 16.5353 -0.52763 -12.8188 -6.14073 -2.20051
lowerback 16.4424 0.269801 3.37198
upperback 16.3541 0.542271 1.24317
thorax 8.62937 0.501497 -0.589161
lowerneck 15.4068 1.08939 4.00162
upperneck -14.6877 1.07139 -7.60632
head -6.9564 0.986636 -3.24894
rclavicle 1.98785e-015 4.17448e-015
rhumerus -15.0105 24.2796 -59.8417
rradius 46.4745
rwrist -28.7564
rhand 15.8516 6.45843
rfingers 7.12502
rthumb 40.6526 -18.5674
lclavicle 1.98785e-015 4.17448e-015
lhumerus -11.6492 -40.9258 55.4065
lradius 45.9559
lwrist 38.4681
lhand 14.7509 22.7416
lfingers 7.12502
lthumb 39.6171 48.082
rfemur -13.5863 -11.1766 17.0281
rtibia 53.4468
rfoot -19.2373 2.69844
rtoes -16.8727
lfemur -13.0169 12.3398 -14.198
ltibia 56.1915
lfoot -22.3359 4.71359
ltoes -24.5408
3356
root 0.635337 16.5307 -0.529102 -12.8089 -6.1608 -2.29005
lowerback 16.4826 0.327173 3.63806
upperback 16.3626 0.643394 1.30488
thorax 8.62985 0.576373 -0.679123
lowerneck 15.0056 1.20912 3.89295
upperneck -14.344 1.22475 -7.56821
head -6.76773 1.05404 -3.2192
rclavicle -3.97569e-015 -1.39149e-014
rhumerus -14.7246 24.2643 -59.441
rradius 46.5334
rwrist -28.9
rhand 15.6057 6.51473
rfingers 7.12502
rthumb 40.4215 -18.5828
lclavicle -3.97569e-015 -1.39149e-014
lhumerus -11.8441 -41.1675 55.8034
lradius 45.9383
lwrist 38.4029
lhand 14.6958 22.6632
lfingers 7.12502
lthumb 39.5653 48.0189
rfemur -13.6445 -11.1106 17.1948
rtibia 53.5312
rfoot -19.3062 2.4424
rtoes -18.0188
lfemur -13.0809 12.362 -14.0515
ltibia 56.2739
lfoot -22.3539 4.75988
ltoes -24.9046
3357
root 0.626219 16.5234 -0.532417 -12.8111 -6.0666 -2.31125
lowerback 16.5493 0.313026 3.74669
upperback 16.343 0.639719 1.3243
thorax 8.57417 0.584118 -0.719299
lowerneck 15.0078 1.3532 3.79849
upperneck -14.3208 1.4042 -7.55698
head -6.75033 1.14493 -3.21671
rclavicle -3.97569e-015 -1.78906e-014
rhumerus -14.3835 24.4461 -59.1233
rradius 46.5917
rwrist -28.9895
rhand 15.4185 6.60288
rfingers 7.12502
rthumb 40.2455 -18.5487
lclavicle -3.97569e-015 -1.78906e-014
lhumerus -12.2449 -41.255 56.2306
lradius 45.924
lwrist 38.2309
lhand 14.7561 22.6455
lfingers 7.12502
lthumb 39.622 47.9844
rfemur -13.6838 -11.1409 17.2495
rtibia 53.6269
rfoot -19.3459 2.30527
rtoes -18.4902
lfemur -13.1572 12.3141 -14.001
ltibia 56.3507
lfoot -22.3425 4.74603
ltoes -25.1003
3358
root 0.617328 16.5187 -0.533728 -12.8336 -5.96472 -2.23746
lowerback 16.6001 0.307786 3.74911
upperback 16.3157 0.639368 1.29544
thorax 8.51487 0.585984 -0.752811
lowerneck 15.1445 1.45345 3.85373
upperneck -14.3784 1.53823 -7.65255
head -6.78259 1.21794 -3.27379
rclavicle 1.41137e-014 1.23246e-014
rhumerus -14.1215 24.5409 -58.8985
rradius 46.7233
rwrist -28.9074
rhand 15.8456 6.35129
rfingers 7.12502
rthumb 40.647 -18.6763
lclavicle 1.41137e-014 1.23246e-014
lhumerus -12.6404 -41.3588 56.6401
lradius 45.8195
lwrist 38.067
lhand 14.832 22.6128
lfingers 7.12502
lthumb 39.6935 47.9305
rfemur -13.7072 -11.1269 17.181
rtibia 53.7394
rfoot -19.3758 2.59274
rtoes -16.3235
lfemur -13.1857 12.2865 -14.0575
ltibia 56.3993
lfoot -22.3906 4.64386
ltoes -24.8884
3359
root 0.608976 16.5151 -0.531651 -12.8611 -5.90252 -2.11436
lowerback 16.5655 0.339889 3.75002
upperback 16.3239 0.682685 1.26631
thorax 8.54534 0.611369 -0.787755
lowerneck 15.0891 1.54734 3.834
upperneck -14.3047 1.65531 -7.70901
head -6.74162 1.27922 -3.29752
rclavicle -3.77691e-015 5.56597e-015
rhumerus -13.8486 24.529 -58.6247
rradius 46.8859
rwrist -28.8532
rhand 16.2278 6.05142
rfingers 7.12502
rthumb 41.0061 -18.863
lclavicle -3.77691e-015 5.56597e-015
lhumerus -12.9795 -41.4511 57.0594
lradius 45.756
lwrist 37.8502
lhand 14.8118 22.6075
lfingers 7.12502
lthumb 39.6744 47.9309
rfemur -13.7506 -11.115 17.0592
rtibia 53.8866
rfoot -19.5088 2.62569
rtoes -16.0033
lfemur -13.1714 12.2684 -14.1679
ltibia 56.4147
lfoot -22.4095 4.54762
ltoes -24.597
3360
root 0.601255 16.5097 -0.530466 -12.871 -5.79673 -1.86866
lowerback 16.4899 0.376009 3.58894
upperback 16.3463 0.714267 1.21816
thorax 8.60877 0.616233 -0.751349
lowerneck 15.0376 1.66129 3.8569
upperneck -14.2531 1.79238 -7.86131
head -6.70564 1.35661 -3.36196
rclavicle 7.95139e-015 -1.59028e-015
rhumerus -13.4972 24.6531 -58.3047
rradius 47.0158
rwrist -28.9606
rhand 16.0696 6.11266
rfingers 7.12502
rthumb 40.8575 -18.8489
lclavicle 7.95139e-015 -1.59028e-015
lhumerus -13.3104 -41.4469 57.4238
lradius 45.7425
lwrist 37.6725
lhand 14.8104 22.5306
lfingers 7.12502
lthumb 39.6732 47.8544
rfemur -13.8351 -11.1413 16.805
rtibia 54.0525
rfoot -19.6393 2.47613
rtoes -16.8124
lfemur -13.199 12.238 -14.4373
ltibia 56.4104
lfoot -22.3555 4.51938
ltoes -24.4251
3361
root 0.592511 16.5029 -0.531216 -12.9092 -5.62133 -1.62328
lowerback 16.5127 0.384921 3.40788
upperback 16.347 0.713721 1.1744
thorax 8.59198 0.60145 -0.698016
lowerneck 15.0518 1.79325 3.84811
upperneck -14.2286 1.94903 -8.00251
head -6.68873 1.44552 -3.42119
rclavicle 6.55989e-015 -6.36111e-015
rhumerus -13.13 24.8373 -57.9891
rradius 47.0244
rwrist -29.1141
rhand 15.9738 6.29144
rfingers 7.12502
rthumb 40.7675 -18.6984
lclavicle 6.55989e-015 -6.36111e-015
lhumerus -13.649 -41.4867 57.7582
lradius 45.7663
lwrist 37.6372
lhand 14.6647 22.5301
lfingers 7.12502
lthumb 39.5359 47.8944
rfemur -13.8635 -11.1983 16.5262
rtibia 54.2108
rfoot -19.6991 2.45999
rtoes -16.6496
lfemur -13.2247 12.191 -14.7143
ltibia 56.4171
lfoot -22.2909 4.66075
ltoes -25.0337
3362
root 0.583045 16.4991 -0.531211 -12.9407 -5.51486 -1.63301
lowerback 16.5515 0.389064 3.48435
upperback 16.3363 0.729698 1.1933
thorax 8.56147 0.616468 -0.722073
lowerneck 15.2036 1.89972 3.8667
upperneck -14.3219 2.07627 -8.1301
head -6.73479 1.52092 -3.48356
rclavicle -1.13307e-014 9.54166e-015
rhumerus -12.7924 24.9118 -57.7027
rradius 46.9936
rwrist -29.2942
rhand 16.4092 6.02426
rfingers 7.12502
rthumb 41.1764 -18.8358
lclavicle -1.13307e-014 9.54166e-015
lhumerus -13.9599 -41.5871 58.067
lradius 45.7677
lwrist 37.6482
lhand 14.6432 22.664
lfingers 7.12502
lthumb 39.5157 48.0343
rfemur -13.8496 -11.2116 16.5526
rtibia 54.3291
rfoot -19.7429 2.48883
rtoes -15.8441
lfemur -13.2288 12.1468 -14.678
ltibia 56.4506
lfoot -22.3002 4.67229
ltoes -25.1804
3363
root 0.575086 16.4968 -0.529289 -12.9617 -5.39526 -1.62871
lowerback 16.5456 0.404249 3.59025
upperback 16.3186 0.762504 1.20044
thorax 8.54827 0.644247 -0.776116
lowerneck 15.3781 1.98189 3.94006
upperneck -14.3998 2.17886 -8.28756
head -6.78017 1.58435 -3.56284
rclavicle 1.31198e-014 -9.93923e-015
rhumerus -12.5371 24.8959 -57.4456
rradius 47.0466
rwrist -29.4798
rhand 17.003 5.73767
rfingers 7.12502
rthumb 41.7336 -18.941
lclavicle 1.31198e-014 -9.93923e-015
lhumerus -14.2229 -41.7851 58.3689
lradius 45.7352
lwrist 37.7188
lhand 14.645 22.9281
lfingers 7.12502
lthumb 39.5173 48.298
rfemur -13.8329 -11.2784 16.5527
rtibia 54.4161
rfoot -19.8419 2.292
rtoes -16.6902
lfemur -13.2396 12.0959 -14.6691
ltibia 56.5093
lfoot -22.3443 4.63154
ltoes -25.1272
3364
root 0.56556 16.4922 -0.52978 -12.9604 -5.29173 -1.59442
lowerback 16.5264 0.431751 3.63316
upperback 16.2854 0.804553 1.21812
thorax 8.5217 0.669091 -0.78474
lowerneck 15.5064 2.06432 3.94479
upperneck -14.3923 2.27622 -8.40404
head -6.79186 1.64384 -3.6138
rclavicle 8.15017e-015 -6.36111e-015
rhumerus -12.3602 24.9281 -57.1898
rradius 47.1991
rwrist -29.6561
rhand 17.3662 5.74166
rfingers 7.12502
rthumb 42.0741 -18.8235
lclavicle 8.15017e-015 -6.36111e-015
lhumerus -14.4515 -41.9221 58.6969
lradius 45.581
lwrist 37.7396
lhand 14.6358 22.8937
lfingers 7.12502
lthumb 39.5087 48.2661
rfemur -13.8542 -11.29 16.5435
rtibia 54.4861
rfoot -19.9054 2.19116
rtoes -16.7742
lfemur -13.3095 12.0821 -14.6753
ltibia 56.5955
lfoot -22.4073 4.55511
ltoes -25.1905
3365
root 0.553289 16.4861 -0.531487 -12.9838 -5.23845 -1.70232
lowerback 16.5487 0.460971 3.83267
upperback 16.2629 0.863934 1.26918
thorax 8.49212 0.716131 -0.846248
lowerneck 15.5796 2.14617 3.90046
upperneck -14.322 2.36668 -8.50138
head -6.77525 1.69948 -3.64684
rclavicle 3.18055e-015 -2.78299e-015
rhumerus -12.2318 24.9615 -56.931
rradius 47.3851
rwrist -29.8198
rhand 17.6814 5.69457
rfingers 7.12502
rthumb 42.3694 -18.7705
lclavicle 3.18055e-015 -2.78299e-015
lhumerus -14.7314 -41.7475 59.0263
lradius 45.5839
lwrist 37.5142
lhand 14.7122 22.8373
lfingers 7.12502
lthumb 39.5806 48.1885
rfemur -13.8475 -11.2535 16.7228
rtibia 54.5493
rfoot -19.9471 2.0364
rtoes -16.9375
lfemur -13.3574 12.0921 -14.4815
ltibia 56.6907
lfoot -22.4666 4.3914
ltoes -25.024
3366
root 0.541916 16.4797 -0.53452 -12.9763 -5.17579 -1.9103
lowerback 16.5454 0.456338 4.12197
upperback 16.2462 0.885608 1.32994
thorax 8.48521 0.752687 -0.943403
lowerneck 15.6616 2.26854 3.77586
upperneck -14.2663 2.50471 -8.53154
head -6.76374 1.77673 -3.64972
rclavicle 1.78906e-015 3.57812e-015
rhumerus -12.0112 24.9994 -56.6821
rradius 47.5361
rwrist -29.9198
rhand 18.0104 5.51746
rfingers 7.12502
rthumb 42.6774 -18.8415
lclavicle 1.78906e-015 3.57812e-015
lhumerus -15.0547 -41.4102 59.3318
lradius 45.6531
lwrist 37.3374
lhand 14.8049 22.9145
lfingers 7.12502
lthumb 39.668 48.2398
rfemur -13.8748 -11.2053 17.0231
rtibia 54.618
rfoot -19.9753 1.90805
rtoes -16.4824
lfemur -13.4375 12.0932 -14.192
ltibia 56.7747
lfoot -22.4554 4.42793
ltoes -25.5681
3367
root 0.534368 16.4753 -0.534832 -12.9658 -4.99822 -1.85071
lowerback 16.4685 0.447003 4.21682
upperback 16.2509 0.883871 1.27539
thorax 8.53646 0.767495 -1.05324
lowerneck 15.7099 2.38802 3.74418
upperneck -14.253 2.65716 -8.5645
head -6.75742 1.85591 -3.67059
rclavicle 1.98785e-016 -1.19271e-014
rhumerus -11.741 25.057 -56.4863
rradius 47.6146
rwrist -30.0527
rhand 18.2495 5.42688
rfingers 7.12502
rthumb 42.901 -18.8539
lclavicle 1.98785e-016 -1.19271e-014
lhumerus -15.2107 -41.2486 59.4666
lradius 45.6367
lwrist 37.3275
lhand 14.8115 22.95
lfingers 7.12502
lthumb 39.6742 48.2735
rfemur -13.9082 -11.2742 16.9585
rtibia 54.7022
rfoot -20.0232 1.91781
rtoes -16.1862
lfemur -13.4973 12.0185 -14.264
ltibia 56.7976
lfoot -22.4446 4.55905
ltoes -26.3567
3368
root 0.526599 16.4722 -0.529114 -13.0314 -4.71396 -1.5462
lowerback 16.3908 0.454212 4.0698
upperback 16.2865 0.883518 1.15828
thorax 8.61668 0.764193 -1.09565
lowerneck 15.6803 2.47988 3.78552
upperneck -14.2052 2.78234 -8.63855
head -6.7265 1.91994 -3.7114
rclavicle -5.96354e-015 -5.56597e-015
rhumerus -11.5431 25.094 -56.3171
rradius 47.7114
rwrist -30.2076
rhand 18.2963 5.4451
rfingers 7.12502
rthumb 42.9448 -18.8203
lclavicle -5.96354e-015 -5.56597e-015
lhumerus -15.3067 -41.1978 59.5125
lradius 45.6724
lwrist 37.3128
lhand 14.9091 23.0516
lfingers 7.12502
lthumb 39.7661 48.3478
rfemur -13.833 -11.4012 16.5561
rtibia 54.8071
rfoot -20.142 1.98269
rtoes -15.765
lfemur -13.4284 11.8818 -14.6218
ltibia 56.7672
lfoot -22.506 4.38496
ltoes -25.7111
